<mxfile host="app.diagrams.net" modified="2021-10-10T15:55:00.409Z" agent="5.0 (Windows NT 10.0; Win64; x64) AppleWebKit/537.36 (KHTML, like Gecko) Chrome/94.0.4606.71 Safari/537.36" etag="-qGIEgY2cKSINE6Z_fYv" version="14.6.11" type="github">
  <diagram id="ub8qPr2dcFQoWJi7Ndgg" name="Page-1">
    <mxGraphModel dx="1483" dy="781" grid="1" gridSize="10" guides="1" tooltips="1" connect="1" arrows="1" fold="1" page="1" pageScale="1" pageWidth="827" pageHeight="1169" math="0" shadow="0">
      <root>
        <mxCell id="0" />
        <mxCell id="1" parent="0" />
        <mxCell id="U9FE6Egc3qeJSzmO6gT7-1" value="&lt;u&gt;Людина&lt;/u&gt;" style="rounded=0;whiteSpace=wrap;html=1;strokeColor=#FFF821;strokeWidth=3;fillColor=#0F08D0;fontColor=#FFFFFF;fontSize=18;" vertex="1" parent="1">
          <mxGeometry x="354" y="60" width="120" height="50" as="geometry" />
        </mxCell>
        <mxCell id="U9FE6Egc3qeJSzmO6gT7-2" value="АКО" style="ellipse;whiteSpace=wrap;html=1;strokeColor=#FFF821;strokeWidth=3;fillColor=#0F08D0;fontColor=#FFFFFF;fontSize=18;" vertex="1" parent="1">
          <mxGeometry x="220" y="70" width="50" height="30" as="geometry" />
        </mxCell>
        <mxCell id="U9FE6Egc3qeJSzmO6gT7-3" value="&lt;u&gt;Диспетчер&lt;/u&gt;&lt;br&gt;АКО Людина" style="rounded=0;whiteSpace=wrap;html=1;strokeColor=#FFF821;strokeWidth=3;fillColor=#0F08D0;fontColor=#FFFFFF;fontSize=18;" vertex="1" parent="1">
          <mxGeometry x="80" y="140" width="120" height="50" as="geometry" />
        </mxCell>
        <mxCell id="U9FE6Egc3qeJSzmO6gT7-4" value="АКО" style="ellipse;whiteSpace=wrap;html=1;strokeColor=#FFF821;strokeWidth=3;fillColor=#0F08D0;fontColor=#FFFFFF;fontSize=18;" vertex="1" parent="1">
          <mxGeometry x="560" y="70" width="50" height="30" as="geometry" />
        </mxCell>
        <mxCell id="U9FE6Egc3qeJSzmO6gT7-5" value="&lt;u&gt;Пілот&lt;/u&gt;&lt;br&gt;АКО Людина" style="rounded=0;whiteSpace=wrap;html=1;strokeColor=#FFF821;strokeWidth=3;fillColor=#0F08D0;fontColor=#FFFFFF;fontSize=18;" vertex="1" parent="1">
          <mxGeometry x="630" y="140" width="120" height="50" as="geometry" />
        </mxCell>
        <mxCell id="U9FE6Egc3qeJSzmO6gT7-6" value="&lt;u&gt;Літак&lt;/u&gt;" style="rounded=0;whiteSpace=wrap;html=1;strokeColor=#FFF821;strokeWidth=3;fillColor=#0F08D0;fontColor=#FFFFFF;fontSize=18;" vertex="1" parent="1">
          <mxGeometry x="354" y="580" width="120" height="50" as="geometry" />
        </mxCell>
        <mxCell id="U9FE6Egc3qeJSzmO6gT7-7" value="&lt;font style=&quot;font-size: 16px&quot;&gt;&lt;u&gt;Роман&lt;/u&gt;&lt;br&gt;АКО Диспетчер&lt;/font&gt;" style="rounded=0;whiteSpace=wrap;html=1;strokeColor=#FFF821;strokeWidth=3;fillColor=#0F08D0;fontColor=#FFFFFF;fontSize=18;" vertex="1" parent="1">
          <mxGeometry x="160" y="250" width="120" height="50" as="geometry" />
        </mxCell>
        <mxCell id="U9FE6Egc3qeJSzmO6gT7-8" value="&lt;u&gt;Зв&#39;язок&lt;/u&gt;" style="rounded=0;whiteSpace=wrap;html=1;strokeColor=#FFF821;strokeWidth=3;fillColor=#0F08D0;fontColor=#FFFFFF;fontSize=18;" vertex="1" parent="1">
          <mxGeometry x="240" y="360" width="120" height="50" as="geometry" />
        </mxCell>
        <mxCell id="U9FE6Egc3qeJSzmO6gT7-9" value="&lt;u&gt;Сева&lt;/u&gt;&lt;br&gt;АКО Пілот" style="rounded=0;whiteSpace=wrap;html=1;strokeColor=#FFF821;strokeWidth=3;fillColor=#0F08D0;fontColor=#FFFFFF;fontSize=18;" vertex="1" parent="1">
          <mxGeometry x="550" y="250" width="120" height="50" as="geometry" />
        </mxCell>
        <mxCell id="U9FE6Egc3qeJSzmO6gT7-10" value="АКО" style="ellipse;whiteSpace=wrap;html=1;strokeColor=#FFF821;strokeWidth=3;fillColor=#0F08D0;fontColor=#FFFFFF;fontSize=18;" vertex="1" parent="1">
          <mxGeometry x="70" y="260" width="50" height="30" as="geometry" />
        </mxCell>
        <mxCell id="U9FE6Egc3qeJSzmO6gT7-11" value="АКО" style="ellipse;whiteSpace=wrap;html=1;strokeColor=#FFF821;strokeWidth=3;fillColor=#0F08D0;fontColor=#FFFFFF;fontSize=18;" vertex="1" parent="1">
          <mxGeometry x="710" y="260" width="50" height="30" as="geometry" />
        </mxCell>
        <mxCell id="U9FE6Egc3qeJSzmO6gT7-12" value="&lt;font style=&quot;font-size: 16px ; line-height: 120%&quot;&gt;Слот:&amp;nbsp;&lt;br&gt;Ситуація 1-7&lt;/font&gt;" style="ellipse;whiteSpace=wrap;html=1;fontColor=#FFFFFF;strokeColor=#FFF821;strokeWidth=3;fillColor=#0F08D0;fontSize=18;perimeterSpacing=0;" vertex="1" parent="1">
          <mxGeometry x="470" y="360" width="120" height="50" as="geometry" />
        </mxCell>
        <mxCell id="U9FE6Egc3qeJSzmO6gT7-13" value="" style="endArrow=classic;html=1;fontColor=#FFFFFF;strokeWidth=3;exitX=0;exitY=0.5;exitDx=0;exitDy=0;entryX=1;entryY=0.5;entryDx=0;entryDy=0;" edge="1" parent="1" source="U9FE6Egc3qeJSzmO6gT7-1" target="U9FE6Egc3qeJSzmO6gT7-2">
          <mxGeometry width="50" height="50" relative="1" as="geometry">
            <mxPoint x="310" y="290" as="sourcePoint" />
            <mxPoint x="360" y="240" as="targetPoint" />
          </mxGeometry>
        </mxCell>
        <mxCell id="U9FE6Egc3qeJSzmO6gT7-14" value="" style="endArrow=classic;html=1;fontColor=#FFFFFF;strokeWidth=3;exitX=0;exitY=0.5;exitDx=0;exitDy=0;entryX=0.5;entryY=0;entryDx=0;entryDy=0;rounded=0;" edge="1" parent="1" source="U9FE6Egc3qeJSzmO6gT7-2" target="U9FE6Egc3qeJSzmO6gT7-3">
          <mxGeometry width="50" height="50" relative="1" as="geometry">
            <mxPoint x="320" y="300" as="sourcePoint" />
            <mxPoint x="370" y="250" as="targetPoint" />
            <Array as="points">
              <mxPoint x="140" y="85" />
            </Array>
          </mxGeometry>
        </mxCell>
        <mxCell id="U9FE6Egc3qeJSzmO6gT7-15" value="" style="endArrow=classic;html=1;fontColor=#FFFFFF;strokeWidth=3;exitX=0;exitY=0.5;exitDx=0;exitDy=0;entryX=0;entryY=0.5;entryDx=0;entryDy=0;rounded=0;" edge="1" parent="1" source="U9FE6Egc3qeJSzmO6gT7-3" target="U9FE6Egc3qeJSzmO6gT7-10">
          <mxGeometry width="50" height="50" relative="1" as="geometry">
            <mxPoint x="330" y="310" as="sourcePoint" />
            <mxPoint x="380" y="260" as="targetPoint" />
            <Array as="points">
              <mxPoint x="30" y="165" />
              <mxPoint x="30" y="275" />
            </Array>
          </mxGeometry>
        </mxCell>
        <mxCell id="U9FE6Egc3qeJSzmO6gT7-16" value="" style="endArrow=classic;html=1;fontColor=#FFFFFF;strokeWidth=3;rounded=0;exitX=1;exitY=0.5;exitDx=0;exitDy=0;entryX=0;entryY=0.5;entryDx=0;entryDy=0;" edge="1" parent="1" source="U9FE6Egc3qeJSzmO6gT7-10" target="U9FE6Egc3qeJSzmO6gT7-7">
          <mxGeometry width="50" height="50" relative="1" as="geometry">
            <mxPoint x="340" y="320" as="sourcePoint" />
            <mxPoint x="160" y="275" as="targetPoint" />
          </mxGeometry>
        </mxCell>
        <mxCell id="U9FE6Egc3qeJSzmO6gT7-17" value="" style="endArrow=classic;html=1;fontColor=#FFFFFF;strokeWidth=3;rounded=0;exitX=1;exitY=0.5;exitDx=0;exitDy=0;entryX=0.5;entryY=0;entryDx=0;entryDy=0;" edge="1" parent="1" source="U9FE6Egc3qeJSzmO6gT7-7" target="U9FE6Egc3qeJSzmO6gT7-8">
          <mxGeometry width="50" height="50" relative="1" as="geometry">
            <mxPoint x="350" y="330" as="sourcePoint" />
            <mxPoint x="400" y="280" as="targetPoint" />
            <Array as="points">
              <mxPoint x="300" y="275" />
            </Array>
          </mxGeometry>
        </mxCell>
        <mxCell id="U9FE6Egc3qeJSzmO6gT7-18" value="" style="endArrow=classic;html=1;fontColor=#FFFFFF;strokeWidth=3;rounded=0;exitX=1;exitY=0.5;exitDx=0;exitDy=0;entryX=0;entryY=0.5;entryDx=0;entryDy=0;" edge="1" parent="1" source="U9FE6Egc3qeJSzmO6gT7-8" target="U9FE6Egc3qeJSzmO6gT7-12">
          <mxGeometry width="50" height="50" relative="1" as="geometry">
            <mxPoint x="360" y="340" as="sourcePoint" />
            <mxPoint x="410" y="290" as="targetPoint" />
          </mxGeometry>
        </mxCell>
        <mxCell id="U9FE6Egc3qeJSzmO6gT7-19" value="" style="endArrow=classic;html=1;fontColor=#FFFFFF;strokeWidth=3;rounded=0;exitX=0.5;exitY=0;exitDx=0;exitDy=0;entryX=0;entryY=0.5;entryDx=0;entryDy=0;" edge="1" parent="1" source="U9FE6Egc3qeJSzmO6gT7-12" target="U9FE6Egc3qeJSzmO6gT7-9">
          <mxGeometry width="50" height="50" relative="1" as="geometry">
            <mxPoint x="370" y="350" as="sourcePoint" />
            <mxPoint x="420" y="300" as="targetPoint" />
            <Array as="points">
              <mxPoint x="530" y="275" />
            </Array>
          </mxGeometry>
        </mxCell>
        <mxCell id="U9FE6Egc3qeJSzmO6gT7-20" value="" style="endArrow=classic;html=1;fontColor=#FFFFFF;strokeWidth=3;rounded=0;exitX=1;exitY=0.5;exitDx=0;exitDy=0;entryX=0;entryY=0.5;entryDx=0;entryDy=0;" edge="1" parent="1" source="U9FE6Egc3qeJSzmO6gT7-1" target="U9FE6Egc3qeJSzmO6gT7-4">
          <mxGeometry width="50" height="50" relative="1" as="geometry">
            <mxPoint x="380" y="360" as="sourcePoint" />
            <mxPoint x="430" y="310" as="targetPoint" />
          </mxGeometry>
        </mxCell>
        <mxCell id="U9FE6Egc3qeJSzmO6gT7-21" value="" style="endArrow=classic;html=1;fontColor=#FFFFFF;strokeWidth=3;rounded=0;exitX=1;exitY=0.5;exitDx=0;exitDy=0;entryX=0.5;entryY=0;entryDx=0;entryDy=0;" edge="1" parent="1" source="U9FE6Egc3qeJSzmO6gT7-4" target="U9FE6Egc3qeJSzmO6gT7-5">
          <mxGeometry width="50" height="50" relative="1" as="geometry">
            <mxPoint x="390" y="370" as="sourcePoint" />
            <mxPoint x="440" y="320" as="targetPoint" />
            <Array as="points">
              <mxPoint x="690" y="85" />
            </Array>
          </mxGeometry>
        </mxCell>
        <mxCell id="U9FE6Egc3qeJSzmO6gT7-22" value="" style="endArrow=classic;html=1;fontColor=#FFFFFF;strokeWidth=3;rounded=0;exitX=1;exitY=0.5;exitDx=0;exitDy=0;entryX=1;entryY=0.5;entryDx=0;entryDy=0;" edge="1" parent="1" source="U9FE6Egc3qeJSzmO6gT7-5" target="U9FE6Egc3qeJSzmO6gT7-11">
          <mxGeometry width="50" height="50" relative="1" as="geometry">
            <mxPoint x="400" y="380" as="sourcePoint" />
            <mxPoint x="450" y="330" as="targetPoint" />
            <Array as="points">
              <mxPoint x="800" y="165" />
              <mxPoint x="800" y="275" />
            </Array>
          </mxGeometry>
        </mxCell>
        <mxCell id="U9FE6Egc3qeJSzmO6gT7-23" value="" style="endArrow=classic;html=1;fontColor=#FFFFFF;strokeWidth=3;rounded=0;exitX=0;exitY=0.5;exitDx=0;exitDy=0;entryX=1;entryY=0.5;entryDx=0;entryDy=0;" edge="1" parent="1" source="U9FE6Egc3qeJSzmO6gT7-11" target="U9FE6Egc3qeJSzmO6gT7-9">
          <mxGeometry width="50" height="50" relative="1" as="geometry">
            <mxPoint x="410" y="390" as="sourcePoint" />
            <mxPoint x="460" y="340" as="targetPoint" />
          </mxGeometry>
        </mxCell>
        <mxCell id="U9FE6Egc3qeJSzmO6gT7-25" value="Слот: Ціль" style="ellipse;whiteSpace=wrap;html=1;fontColor=#FFFFFF;strokeColor=#FFF821;strokeWidth=3;fillColor=#0F08D0;fontSize=18;" vertex="1" parent="1">
          <mxGeometry x="160" y="470" width="120" height="50" as="geometry" />
        </mxCell>
        <mxCell id="U9FE6Egc3qeJSzmO6gT7-26" value="Слот: Дія 1-5" style="ellipse;whiteSpace=wrap;html=1;fontColor=#FFFFFF;strokeColor=#FFF821;strokeWidth=3;fillColor=#0F08D0;fontSize=18;" vertex="1" parent="1">
          <mxGeometry x="550" y="470" width="120" height="50" as="geometry" />
        </mxCell>
        <mxCell id="U9FE6Egc3qeJSzmO6gT7-27" value="" style="endArrow=classic;html=1;fontColor=#FFFFFF;strokeWidth=3;rounded=0;exitX=0.5;exitY=1;exitDx=0;exitDy=0;entryX=0.5;entryY=0;entryDx=0;entryDy=0;" edge="1" parent="1" source="U9FE6Egc3qeJSzmO6gT7-9" target="U9FE6Egc3qeJSzmO6gT7-26">
          <mxGeometry width="50" height="50" relative="1" as="geometry">
            <mxPoint x="370" y="395" as="sourcePoint" />
            <mxPoint x="479.9999999999968" y="395" as="targetPoint" />
          </mxGeometry>
        </mxCell>
        <mxCell id="U9FE6Egc3qeJSzmO6gT7-29" value="" style="endArrow=classic;html=1;fontColor=#FFFFFF;strokeWidth=3;rounded=0;exitX=0.5;exitY=1;exitDx=0;exitDy=0;entryX=0.5;entryY=0;entryDx=0;entryDy=0;" edge="1" parent="1" source="U9FE6Egc3qeJSzmO6gT7-7" target="U9FE6Egc3qeJSzmO6gT7-25">
          <mxGeometry width="50" height="50" relative="1" as="geometry">
            <mxPoint x="380" y="405" as="sourcePoint" />
            <mxPoint x="489.9999999999968" y="405" as="targetPoint" />
          </mxGeometry>
        </mxCell>
        <mxCell id="U9FE6Egc3qeJSzmO6gT7-30" value="" style="endArrow=classic;html=1;fontColor=#FFFFFF;strokeWidth=3;rounded=0;exitX=1;exitY=0.5;exitDx=0;exitDy=0;entryX=0;entryY=0.5;entryDx=0;entryDy=0;" edge="1" parent="1" source="U9FE6Egc3qeJSzmO6gT7-25" target="U9FE6Egc3qeJSzmO6gT7-6">
          <mxGeometry width="50" height="50" relative="1" as="geometry">
            <mxPoint x="390" y="415" as="sourcePoint" />
            <mxPoint x="499.9999999999968" y="415" as="targetPoint" />
            <Array as="points">
              <mxPoint x="310" y="495" />
              <mxPoint x="310" y="605" />
            </Array>
          </mxGeometry>
        </mxCell>
        <mxCell id="U9FE6Egc3qeJSzmO6gT7-31" value="" style="endArrow=classic;html=1;fontColor=#FFFFFF;strokeWidth=3;rounded=0;exitX=0;exitY=0.5;exitDx=0;exitDy=0;entryX=1;entryY=0.5;entryDx=0;entryDy=0;" edge="1" parent="1" source="U9FE6Egc3qeJSzmO6gT7-26" target="U9FE6Egc3qeJSzmO6gT7-6">
          <mxGeometry width="50" height="50" relative="1" as="geometry">
            <mxPoint x="400" y="425" as="sourcePoint" />
            <mxPoint x="509.9999999999968" y="425" as="targetPoint" />
            <Array as="points">
              <mxPoint x="520" y="495" />
              <mxPoint x="520" y="605" />
            </Array>
          </mxGeometry>
        </mxCell>
      </root>
    </mxGraphModel>
  </diagram>
</mxfile>
